#!OML:ASF F:\VICON\USERDATA\INSTALL\rory3\rory3.ASF
:FULLY-SPECIFIED
:DEGREES
1
root 0.21767379603398232 16.70202201163251 -32.745194577217795 3.4516972602554894 6.4655942004591855 0.8265524889678786
lfemur 24.531723758263503 -4.817166069786295 -28.31085757310114
ltibia 32.06262045885538
lfoot -12.80101796301727 -10.683474860486449
ltoes -19.61433032670235
rfemur -45.13564221414106 2.497089413917849 23.09631294860818
rtibia 40.78732100694387
rfoot 5.1207371896229406 -13.465267598071648
rtoes -5.207047653557657
lowerback 13.983993677244799 -1.8191838283363082 -4.782617825515874
upperback -1.127702445872799 -3.0067052857221395 1.9379775958353949
thorax -8.703016805990016 -1.1374489687020923 6.648010759991848
lowerneck -21.078761849224925 -0.9959823374504291 -2.0109368551079805
upperneck 13.895488779598487 -0.36655954192494633 1.2929487913184092
head 7.744135314785472 -0.2325842890243417 0.3524008269706529
lclavicle -1.7288339961892143e-15 1.7836277152507084e-15
lhumerus -34.809352755606376 -16.11331301731628 94.36070454220001
lradius 118.6844646364228
lwrist 35.1327114228818
lhand -30.142181826906203 3.82777203635692
lfingers 7.12502
lthumb -3.454097146063803 33.72568630326592
rclavicle -1.7288339961892143e-15 1.7836277152507084e-15
rhumerus -64.51265106176663 7.344550577841114 -94.47041533778071
rradius 110.07676186158844
rwrist -10.69170921052499
rhand -16.503146924407254 39.91780583289671
rfingers 7.12502
rthumb 9.71466295236061 10.162582120854019
2
root 0.1683163496269691 17.07420431460438 -31.580583849751626 2.861151134088116 5.459729795850781 -1.1792272975097517
lfemur 21.38112836533731 -6.248406803286595 -25.744944451187372
ltibia 46.20492279966762
lfoot -2.265634314347508 -14.184239873956793
ltoes -24.73004063442198
rfemur -42.06778745247185 2.66038787159691 26.286528796794116
rtibia 44.52900281835563
rfoot 10.464244851564029 -8.876299805668273
rtoes -5.372868484843089
lowerback 14.363275896051622 -1.6926085685431422 -1.9903198160294864
upperback -1.7392844039912418 -2.4465848288995717 3.130734654084529
thorax -9.59218582445684 -0.9271404194304121 5.511367467447204
lowerneck -20.348244674315776 -2.2869696189162747 -2.394488787774046
upperneck 15.669625703784261 -1.4970239106571466 1.0649171185701691
head 8.068701673389475 -1.1375992187249833 0.3178489910853152
lclavicle -1.7288340178750034e-15 1.7836277538457704e-15
lhumerus -38.211053422959864 -14.68626839842852 96.0376740029644
lradius 118.75420277796053
lwrist 35.445068490342656
lhand -30.35918848897058 3.6217838494527568
lfingers 7.12502
lthumb -3.6635839671928867 33.51485757620749
rclavicle -1.7288340178750034e-15 1.7836277538457704e-15
rhumerus -67.64136575625938 4.468477883300258 -90.9723211712626
rradius 105.91318184545278
rwrist -8.729066652335346
rhand -15.833047512117146 40.628994266065625
rfingers 7.12502
rthumb 10.361162468910397 10.87288714083202
3
root 0.11216113820912962 17.489767718570192 -30.44482707168507 2.716662959223042 4.981548641697846 -1.4067539603732764
lfemur 13.879276669523806 -3.0041860038484454 -24.17644251166983
ltibia 62.07280925671648
lfoot 21.89984685454412 -18.721538017474085
ltoes -23.737202531978618
rfemur -39.36948757385778 -0.8797812839474324 27.3962769003991
rtibia 50.59141822946433
rfoot 9.966884504831587 -4.88397611182302
rtoes 0.8127306053162244
lowerback 14.454355200264306 -1.6150855885916302 -1.622809271543783
upperback -2.149747012125636 -2.274216107779348 3.511539716901361
thorax -9.96323603888445 -0.8511946516593155 5.575024222380158
lowerneck -21.226381764881236 -1.9337370673104395 -2.6072185104760153
upperneck 15.822758688068909 -0.7375920338406079 1.104143593741643
head 8.180685540858013 -0.8009643682611316 0.4093606933549224
lclavicle -1.728834098313663e-15 1.783627777967722e-15
lhumerus -44.23692990633502 -12.850554968218812 97.13758743255322
lradius 119.2017223948
lwrist 35.577825161310685
lhand -29.89597155987507 -3.156761362087285
lfingers 7.12502
lthumb -3.216408763138851 26.773345708441678
rclavicle -1.728834098313663e-15 1.783627777967722e-15
rhumerus -68.95484101427542 2.348411932128002 -88.24160463481688
rradius 103.22781293502855
rwrist -7.125556609604475
rhand -15.655914001636475 39.83294850086709
rfingers 7.12502
rthumb 10.532086313696848 10.093023937024912
4
root 0.046666547890815396 17.940449156673967 -29.387574812551208 2.4981425525993077 4.941370078523834 -3.262621502248008
lfemur 3.0116339761040027 -0.47498060912355344 -20.11544668996061
ltibia 80.0485832066695
lfoot 39.63264073216469 -21.482702189955866
ltoes 8.594987027947417
rfemur -33.400744672842215 -1.6860165902464046 30.540235431068268
rtibia 50.08493837227585
rfoot 9.273650705245172 -3.4446925786384734
rtoes 13.649311742052998
lowerback 14.894694627051937 -1.400885781425551 0.9775112263654446
upperback -2.177779244212701 -1.6055006565746828 4.149185205709072
thorax -10.400010394432648 -0.6179956118156572 4.004918535582896
lowerneck -20.1887772533901 -2.917713835824145 -2.2911796035776413
upperneck 14.689900034553373 -2.598669554000016 1.2476567320611638
head 7.849829052329266 -1.6133791959785047 0.31198728700459016
lclavicle -1.7288340368242107e-15 1.78362776349447e-15
lhumerus -47.11502023000157 -15.712095966612312 99.13270118965633
lradius 119.39997796860021
lwrist 37.475094391008994
lhand -28.13383705640862 -1.356422875367053
lfingers 7.12502
lthumb -1.51492065691141 28.602513701966178
rclavicle -1.7288340368242107e-15 1.78362776349447e-15
rhumerus -69.50534799864364 3.1513852199523553 -88.77862351396973
rradius 103.92683567215305
rwrist -8.364986733114439
rhand -16.342724122462492 39.87981001258494
rfingers 7.12502
rthumb 9.869445196397846 10.127793196004234
5
root -0.006522532414628551 18.33879783802314 -28.408935955177775 2.1557816889275885 4.012829959063478 -4.2211372345244085
lfemur -7.403886221831064 3.790424395759541 -17.730120456018852
ltibia 94.94686368437965
lfoot 31.05626454543677 -18.454756034281033
ltoes 0.2525245366843283
rfemur -27.1220778253153 0.009074179107955715 32.3817212857058
rtibia 48.586945830493775
rfoot 6.990104171675522 -4.178789481760525
rtoes 16.333525087966482
lowerback 15.871932277863788 -0.8505492831191057 2.393960513899811
upperback -1.3891875723499847 -0.6238120845713135 4.291913754427976
thorax -10.354626610083557 -0.22804242683647757 2.8391463644683825
lowerneck -20.787313219598502 -3.7049598466518594 -2.202618042372943
upperneck 14.619028570752212 -4.130154396198565 1.8093345479041911
head 7.897846969889504 -2.1850255927455664 0.40458158737857086
lclavicle -1.7288339487643334e-15 1.7836276975612166e-15
lhumerus -46.82294788354552 -17.49393551651704 100.6294560015453
lradius 116.07984467590398
lwrist 34.75378968025528
lhand -26.492190382239038 0.5667979205791642
lfingers 7.12502
lthumb 0.070418522714212 30.538995416921324
rclavicle -1.7288339487643334e-15 1.7836276975612166e-15
rhumerus -64.15940908013035 3.048078149945818 -89.7382753253492
rradius 102.75706452964698
rwrist -7.925817882516277
rhand -14.184536115049346 42.66057078473552
rfingers 7.12502
rthumb 11.951678273583205 12.899671416662237
6
root -0.03698530277808798 18.609068983104468 -27.478423307746503 1.39519373564484 2.9035138330815426 -4.502194687695746
lfemur -16.535937253071477 7.193998825439098 -16.95757332152948
ltibia 103.5665731628238
lfoot 17.608907109108628 -14.155339191338626
ltoes -15.904115317317427
rfemur -20.855651012131627 1.2822345296070454 33.216490584996606
rtibia 47.639317068379626
rfoot 4.991133070072953 -4.12726198593736
rtoes 12.723648425590229
lowerback 17.13912259734464 -0.4465632456125954 2.739544487495091
upperback -1.4539908774002004 0.03529732572263233 4.452355435973846
thorax -10.956161251199864 0.04920296836076277 2.6153193416710265
lowerneck -16.604906909406676 -3.3826257230590926 -2.3231618523072144
upperneck 14.199585213561642 -3.620668218820631 1.6741975910233569
head 7.452768674748008 -2.038572080481911 0.4445790779032244
lclavicle -1.7288339900574533e-15 1.783627761886421e-15
lhumerus -50.80266914622413 -15.600105907941066 101.00129553777245
lradius 114.12020289869298
lwrist 32.187685219903365
lhand -25.185742318537056 4.301882835916325
lfingers 7.12502
lthumb 1.3321532751785268 34.26760764632313
rclavicle -1.7288339900574533e-15 1.783627761886421e-15
rhumerus -59.80782340213213 4.571688314326422 -90.60099661754157
rradius 103.17712524876754
rwrist -6.621493065367228
rhand -13.125912729299273 39.88727585797953
rfingers 7.12502
rthumb 12.972809973153046 10.19255946273042
